<svg width="20" height="20" viewBox="0 0 20 20" fill="none" xmlns="http://www.w3.org/2000/svg">
<circle cx="10" cy="10" r="10" fill="white"/>
<g clip-path="url(#clip0_47_28461)">
<path fill-rule="evenodd" clip-rule="evenodd" d="M4.64062 8.32624C4.64062 8.80624 5.03563 9.20124 5.51562 9.20124H14.5156C14.9956 9.20124 15.3906 8.80624 15.3906 8.32624V6.66624C15.3906 6.33124 15.1556 5.98124 14.8406 5.85624L10.3406 4.05625C10.1506 3.98125 9.88061 3.98125 9.69061 4.05625L5.19061 5.85624C4.87561 5.98124 4.64062 6.32624 4.64062 6.66624V8.32624ZM8.89062 6.82617C8.89062 7.44617 9.39563 7.95117 10.0156 7.95117C10.6356 7.95117 11.1406 7.44617 11.1406 6.82617C11.1406 6.20617 10.6356 5.70117 10.0156 5.70117C9.39563 5.70117 8.89062 6.20617 8.89062 6.82617ZM9.64062 6.82617C9.64062 6.62117 9.81063 6.45117 10.0156 6.45117C10.2206 6.45117 10.3906 6.62117 10.3906 6.82617C10.3906 7.03117 10.2206 7.20117 10.0156 7.20117C9.81063 7.20117 9.64062 7.03117 9.64062 6.82617Z" fill="#292D32"/>
<path d="M15 14.7012H5C4.795 14.7012 4.625 14.5312 4.625 14.3262V12.8262C4.625 12.3462 5.02 11.9512 5.5 11.9512H14.5C14.98 11.9512 15.375 12.3462 15.375 12.8262V14.3262C15.375 14.5312 15.205 14.7012 15 14.7012Z" fill="#292D32"/>
<path d="M6.125 12.7012C5.85167 12.7012 5.625 12.5312 5.625 12.3262V8.82617C5.625 8.62117 5.85167 8.45117 6.125 8.45117C6.39833 8.45117 6.625 8.62117 6.625 8.82617V12.3262C6.625 12.5312 6.39833 12.7012 6.125 12.7012Z" fill="#292D32"/>
<path d="M8.125 12.7012C7.85167 12.7012 7.625 12.5312 7.625 12.3262V8.82617C7.625 8.62117 7.85167 8.45117 8.125 8.45117C8.39833 8.45117 8.625 8.62117 8.625 8.82617V12.3262C8.625 12.5312 8.39833 12.7012 8.125 12.7012Z" fill="#292D32"/>
<path d="M10.125 12.7012C9.85167 12.7012 9.625 12.5312 9.625 12.3262V8.82617C9.625 8.62117 9.85167 8.45117 10.125 8.45117C10.3983 8.45117 10.625 8.62117 10.625 8.82617V12.3262C10.625 12.5312 10.3983 12.7012 10.125 12.7012Z" fill="#292D32"/>
<path d="M12.125 12.7012C11.8517 12.7012 11.625 12.5312 11.625 12.3262V8.82617C11.625 8.62117 11.8517 8.45117 12.125 8.45117C12.3983 8.45117 12.625 8.62117 12.625 8.82617V12.3262C12.625 12.5312 12.3983 12.7012 12.125 12.7012Z" fill="#292D32"/>
<path d="M14.125 12.7012C13.8517 12.7012 13.625 12.5312 13.625 12.3262V8.82617C13.625 8.62117 13.8517 8.45117 14.125 8.45117C14.3983 8.45117 14.625 8.62117 14.625 8.82617V12.3262C14.625 12.5312 14.3983 12.7012 14.125 12.7012Z" fill="#292D32"/>
</g>
<defs>
<clipPath id="clip0_47_28461">
<rect width="12" height="12" fill="white" transform="translate(4 4)"/>
</clipPath>
</defs>
</svg>
