<svg width="28" height="20" viewBox="0 0 28 20" fill="none" xmlns="http://www.w3.org/2000/svg">
<g filter="url(#filter0_d_47_28441)">
<g clip-path="url(#clip0_47_28441)">
<path d="M2 2H26V18H2V2Z" fill="white"/>
<path d="M10.6719 7.78125C11.2603 6.89857 12.1754 6.28581 13.2156 6.07777C14.2559 5.86973 15.3362 6.08345 16.2189 6.67192C17.1016 7.26039 17.7144 8.1754 17.9224 9.21566C18.1304 10.2559 17.9167 11.3362 17.3282 12.2189L10.6719 7.78125Z" fill="#D0303C"/>
<path d="M10.672 7.78122C10.0835 8.6639 9.86977 9.7442 10.0778 10.7845C10.2858 11.8247 10.8986 12.7397 11.7813 13.3282C12.664 13.9167 13.7443 14.1304 14.7846 13.9224C15.8248 13.7143 16.7398 13.1016 17.3283 12.2189C17.6225 11.7775 17.7294 11.2374 17.6254 10.7173C17.5214 10.1971 17.215 9.73962 16.7736 9.44539C16.3323 9.15115 15.7921 9.04429 15.272 9.14831C14.7519 9.25233 14.2944 9.55871 14.0001 10.0001L10.672 7.78122Z" fill="#134A9D"/>
<path d="M14.0001 10.0001C14.6128 9.08102 14.3645 7.83928 13.4454 7.22657C12.5264 6.61385 11.2846 6.86218 10.6719 7.78123C10.0592 8.70028 10.3075 9.94202 11.2266 10.5547C12.1456 11.1674 13.3874 10.9191 14.0001 10.0001Z" fill="#D0303C"/>
<path d="M5.67977 6.8575L7.89858 3.5293L8.45328 3.8991L6.23447 7.2273L5.67977 6.8575ZM6.51182 7.4122L8.73063 4.084L9.28533 4.4538L7.06652 7.782L6.51182 7.4122ZM7.34387 7.9669L9.56268 4.6387L10.1174 5.0085L7.89858 8.3367L7.34387 7.9669Z" fill="black"/>
<path d="M21.3038 14.6694L22.3207 13.1441L21.766 12.7743L20.7491 14.2996L21.3038 14.6694Z" fill="black"/>
<path d="M20.4718 14.1147L21.4887 12.5894L20.934 12.2196L19.9171 13.7449L20.4718 14.1147Z" fill="black"/>
<path d="M19.7322 14.0223L20.2869 14.3921L19.2699 15.9176L18.7152 15.5478L19.7322 14.0223Z" fill="black"/>
<path d="M19.6397 13.56L20.6566 12.0347L20.1019 11.6649L19.085 13.1902L19.6397 13.56Z" fill="black"/>
<path d="M18.9001 13.4676L19.4548 13.8374L18.4378 15.3629L17.8831 14.9931L18.9001 13.4676Z" fill="black"/>
<path d="M20.5642 14.577L21.1189 14.9468L20.1019 16.4723L19.5472 16.1025L20.5642 14.577Z" fill="black"/>
<path d="M19.4547 6.16435L18.4377 4.63886L17.883 5.00866L18.9 6.53415L19.4547 6.16435Z" fill="black"/>
<path d="M19.0849 6.8115L20.1018 8.33686L20.6565 7.96706L19.6396 6.4417L19.0849 6.8115Z" fill="black"/>
<path d="M20.9339 7.78216L18.7151 4.45396L19.2698 4.08416L21.4886 7.41236L20.9339 7.78216Z" fill="black"/>
<path d="M21.7659 7.22746L20.749 5.70207L21.3037 5.33227L22.3206 6.85766L21.7659 7.22746Z" fill="black"/>
<path d="M21.1188 5.05492L20.5641 5.42472L19.5471 3.89926L20.1018 3.52946L21.1188 5.05492Z" fill="black"/>
<path d="M5.67969 13.1443L7.89849 16.4725L8.45319 16.1027L6.23439 12.7745L5.67969 13.1443Z" fill="black"/>
<path d="M7.7136 14.3924L8.73054 15.9178L9.28524 15.548L8.2683 14.0226L7.7136 14.3924Z" fill="black"/>
<path d="M7.5287 14.115L8.0834 13.7452L7.06644 12.2198L6.51174 12.5896L7.5287 14.115Z" fill="black"/>
<path d="M7.34379 12.0349L9.56259 15.3631L10.1173 14.9933L7.89849 11.6651L7.34379 12.0349Z" fill="black"/>
</g>
</g>
<defs>
<filter id="filter0_d_47_28441" x="0" y="0" width="28" height="20" filterUnits="userSpaceOnUse" color-interpolation-filters="sRGB">
<feFlood flood-opacity="0" result="BackgroundImageFix"/>
<feColorMatrix in="SourceAlpha" type="matrix" values="0 0 0 0 0 0 0 0 0 0 0 0 0 0 0 0 0 0 127 0" result="hardAlpha"/>
<feOffset/>
<feGaussianBlur stdDeviation="1"/>
<feComposite in2="hardAlpha" operator="out"/>
<feColorMatrix type="matrix" values="0 0 0 0 0 0 0 0 0 0 0 0 0 0 0 0 0 0 0.1 0"/>
<feBlend mode="normal" in2="BackgroundImageFix" result="effect1_dropShadow_47_28441"/>
<feBlend mode="normal" in="SourceGraphic" in2="effect1_dropShadow_47_28441" result="shape"/>
</filter>
<clipPath id="clip0_47_28441">
<rect x="2" y="2" width="24" height="16" rx="1" fill="white"/>
</clipPath>
</defs>
</svg>
